<svg xmlns="http://www.w3.org/2000/svg" viewBox="0 0 2048 280" fill="#ffffff" fill-rule="evenodd" clip-rule="evenodd" role="img" aria-label="Startovací Hub">
  <path d="M206.507,233.228l0,-178.794l-93.366,0l-102.127,178.794l195.493,0Z"/>
  <path d="M303.622,178.568l-36.295,7.407c4.506,30.14 30.788,49.807 68.836,49.807c37.547,0 67.084,-22.732 67.084,-53.383c0,-68.708 -94.868,-46.742 -94.868,-79.691c0,-11.238 10.513,-19.412 26.032,-19.412c17.272,0 28.285,10.472 31.039,25.797l36.295,-7.407c-4.255,-29.118 -29.036,-49.807 -66.082,-49.807c-36.045,0 -64.33,22.732 -64.33,52.872c0,66.154 94.868,44.188 94.868,78.669c0,11.494 -11.514,20.944 -29.036,20.944c-19.524,0 -30.788,-9.961 -33.542,-25.797Z"/>
  <path d="M414.505,131.827l26.032,0l0,50.318c0,34.226 16.521,51.084 52.065,51.084l15.269,0l0,-30.395l-15.269,0c-12.516,0 -18.273,-5.875 -18.273,-18.646l0,-52.361l33.542,0l0,-30.395l-33.542,0l0,-49.551l-33.792,10.728l0,38.824l-26.032,0l0,30.395Z"/>
  <path d="M584.969,98.877c-33.041,0 -54.318,17.879 -57.822,40.612l33.542,7.663c2.253,-12.516 11.014,-19.923 24.531,-19.923c12.015,0 21.026,6.13 21.026,15.836c0,6.896 -4.005,9.961 -12.015,10.472l-21.026,2.043c-24.03,2.554 -49.812,12.26 -49.812,42.4c0,23.243 18.022,37.802 42.052,37.802c17.272,0 31.79,-7.663 40.801,-18.646l0,16.091l33.792,0l0,-83.267c0,-34.737 -23.78,-51.084 -55.069,-51.084Zm-27.785,96.293c0,-7.663 6.007,-12.771 15.77,-14.048l21.777,-2.554c5.507,-0.766 9.262,-1.533 11.514,-3.32l0,2.81c0,15.836 -14.768,30.395 -32.541,30.395c-10.263,0 -16.521,-5.364 -16.521,-13.282Z"/>
  <path d="M699.611,118.545l0,-17.113l-33.792,0l0,131.797l33.792,0l0,-73.816c0,-22.732 21.026,-35.503 48.31,-25.797l0,-32.694c-19.024,-6.13 -37.296,2.299 -48.31,17.624Z"/>
  <path d="M756.432,131.827l26.032,0l0,50.318c0,34.226 16.521,51.084 52.065,51.084l15.269,0l0,-30.395l-15.269,0c-12.516,0 -18.273,-5.875 -18.273,-18.646l0,-52.361l33.542,0l0,-30.395l-33.542,0l0,-49.551l-33.792,10.728l0,38.824l-26.032,0l0,30.395Z"/>
  <path d="M861.553,167.33c0,38.824 29.787,68.453 69.086,68.453c39.299,0 69.086,-29.629 69.086,-68.453c0,-38.824 -29.787,-68.453 -69.086,-68.453c-39.299,0 -69.086,29.629 -69.086,68.453Zm35.044,0c0,-20.944 14.768,-36.78 34.042,-36.78c19.524,0 34.042,15.836 34.042,36.78c0,21.2 -14.518,37.036 -34.042,37.036c-19.274,0 -34.042,-15.836 -34.042,-37.036Z"/>
  <path d="M1105.343,101.432l-34.793,97.06l-34.793,-97.06l-36.546,0l51.064,131.797l38.047,0l51.064,-131.797l-34.042,0Z"/>
  <path d="M1202.458,98.877c-33.041,0 -54.318,17.879 -57.822,40.612l33.542,7.663c2.253,-12.516 11.014,-19.923 24.531,-19.923c12.015,0 21.026,6.13 21.026,15.836c0,6.896 -4.005,9.961 -12.015,10.472l-21.026,2.043c-24.03,2.554 -49.812,12.26 -49.812,42.4c0,23.243 18.022,37.802 42.052,37.802c17.272,0 31.79,-7.663 40.801,-18.646l0,16.091l33.792,0l0,-83.267c0,-34.737 -23.78,-51.084 -55.069,-51.084Zm-27.785,96.293c0,-7.663 6.007,-12.771 15.77,-14.048l21.777,-2.554c5.507,-0.766 9.262,-1.533 11.514,-3.32l0,2.81c0,15.836 -14.768,30.395 -32.541,30.395c-10.263,0 -16.521,-5.364 -16.521,-13.282Z"/>
  <path d="M1278.303,167.33c0,38.824 29.787,68.453 69.086,68.453c27.534,0 51.064,-15.07 62.077,-41.889l-31.039,-10.983c-5.757,13.537 -17.272,21.455 -31.039,21.455c-19.274,0 -34.042,-15.836 -34.042,-37.036c0,-20.944 14.768,-36.78 34.042,-36.78c13.767,0 25.281,7.663 31.039,21.2l31.039,-10.983c-11.014,-26.819 -34.543,-41.889 -62.077,-41.889c-39.299,0 -69.086,29.629 -69.086,68.453Z"/>
  <path d="M1424.485,85.34l33.542,0l30.288,-40.867l-37.547,0l-26.283,40.867Zm5.006,147.888l33.792,0l0,-131.797l-33.792,0l0,131.797Z"/>
  <path d="M1565.41,233.228l35.795,0l0,-73.306l81.101,0l0,73.306l35.795,0l0,-178.794l-35.795,0l0,73.306l-81.101,0l0,-73.306l-35.795,0l0,178.794Z"/>
  <path d="M1743.882,101.432l0,76.115c0,34.737 25.281,58.236 60.575,58.236c35.044,0 60.575,-23.499 60.575,-58.236l0,-76.115l-33.792,0l0,76.115c0,16.091 -11.264,26.819 -26.783,26.819c-15.77,0 -26.783,-10.728 -26.783,-26.819l0,-76.115l-33.792,0Z"/>
  <path d="M1965.909,98.877c-17.021,0 -31.039,6.896 -41.051,18.135l0,-72.795l-33.792,0l0,189.011l33.792,0l0,-15.581c10.012,11.238 24.03,18.135 41.051,18.135c35.294,0 62.077,-29.629 62.077,-68.453c0,-38.824 -26.783,-68.453 -62.077,-68.453Zm-41.051,68.453c0,-20.944 14.768,-36.78 34.042,-36.78c19.524,0 34.042,15.836 34.042,36.78c0,21.2 -14.518,37.036 -34.042,37.036c-19.274,0 -34.042,-15.836 -34.042,-37.036Z"/>
</svg>
